<svg xmlns="http://www.w3.org/2000/svg" xmlns:xlink="http://www.w3.org/1999/xlink" viewBox="0 0 430 430" width="430" height="430" preserveAspectRatio="xMidYMid meet" style="width: 100%; height: 100%; transform: translate3d(0px, 0px, 0px); content-visibility: visible;"><defs><clipPath id="__lottie_element_10"><rect width="430" height="430" x="0" y="0"/></clipPath><clipPath id="__lottie_element_12"><path d="M0,0 L430,0 L430,430 L0,430z"/></clipPath></defs><g clip-path="url(#__lottie_element_10)"><g clip-path="url(#__lottie_element_12)" transform="matrix(1,0,0,1,0,0)" opacity="1" style="display: block;"><g transform="matrix(1,0,0,1,225,215)" opacity="1" style="display: block;"><g opacity="1" transform="matrix(1,0,0,1,0,0)"><path class="secondary" fill="rgb(108,21,198)" fill-opacity="1" d=" M-40,-95 C-40,-95 2.5,-95 2.5,-95 C25.972000122070312,-95 45,-75.97200012207031 45,-52.5 C45,-29.027999877929688 25.972000122070312,-10 2.5,-10 C2.5,-10 -40,-10 -40,-10 C-40,-10 -40,-95 -40,-95z M-122,-160 C-123.65699768066406,-160 -125,-158.65699768066406 -125,-157 C-125,-157 -125,157 -125,157 C-125,158.65699768066406 -123.65699768066406,160 -122,160 C-122,160 -43,160 -43,160 C-41.34299850463867,160 -40,158.65699768066406 -40,157 C-40,157 -40,55 -40,55 C-40,55 17.5,55 17.5,55 C76.87100219726562,55 125,6.870999813079834 125,-52.5 C125,-111.87100219726562 76.87100219726562,-160 17.5,-160 C17.5,-160 -122,-160 -122,-160z"/></g></g><g transform="matrix(1,0,0,1,117.5,215)" opacity="0.5" style="mix-blend-mode: multiply; display: block;"><g opacity="1" transform="matrix(1,0,0,1,0,0)"><path class="secondary" fill="rgb(108,21,198)" fill-opacity="1" d=" M-14.5,-160 C-16.156999588012695,-160 -17.5,-158.65699768066406 -17.5,-157 C-17.5,-157 -17.5,157 -17.5,157 C-17.5,158.65699768066406 -16.156999588012695,160 -14.5,160 C-14.5,160 17.5,160 17.5,160 C17.5,160 17.5,-160 17.5,-160 C17.5,-160 -14.5,-160 -14.5,-160z"/></g></g><g transform="matrix(1,0,0,1,225,215)" opacity="1" style="display: block;"><g opacity="1" transform="matrix(1,0,0,1,0,0)"><path stroke-linecap="butt" stroke-linejoin="round" fill-opacity="0" class="primary" stroke="rgb(0,0,0)" stroke-opacity="1" stroke-width="7" d=" M-40,-95 C-40,-95 2.5,-95 2.5,-95 C25.972000122070312,-95 45,-75.97200012207031 45,-52.5 C45,-29.027999877929688 25.972000122070312,-10 2.5,-10 C2.5,-10 -40,-10 -40,-10 C-40,-10 -40,-95 -40,-95z M-125,-160 C-125,-160 17.5,-160 17.5,-160 C76.87100219726562,-160 125,-111.87100219726562 125,-52.5 C125,6.870999813079834 76.87100219726562,55 17.5,55 C17.5,55 -40,55 -40,55 C-40,55 -40,160 -40,160 C-40,160 -125,160 -125,160 C-125,160 -125,-160 -125,-160z"/></g></g></g></g></svg>